<?xml version="1.0" encoding="utf-8"?>
<!-- Generator: Adobe Illustrator 23.0.1, SVG Export Plug-In . SVG Version: 6.00 Build 0)  -->
<svg version="1.1" xmlns="http://www.w3.org/2000/svg" xmlns:xlink="http://www.w3.org/1999/xlink" x="0px" y="0px"
	 viewBox="0 0 48 48" style="enable-background:new 0 0 48 48;" xml:space="preserve">
<g id="icon" xmlns:cc="http://creativecommons.org/ns#" xmlns:dc="http://purl.org/dc/elements/1.1/" xmlns:inkscape="http://www.inkscape.org/namespaces/inkscape" xmlns:rdf="http://www.w3.org/1999/02/22-rdf-syntax-ns#" xmlns:sodipodi="http://sodipodi.sourceforge.net/DTD/sodipodi-0.dtd" xmlns:svg="http://www.w3.org/2000/svg">
	<path d="M29.064,12.461c0.262,0,0.475,0.213,0.475,0.475v22.128c0,0.262-0.213,0.475-0.475,0.475H18.936
		c-0.262,0-0.475-0.213-0.475-0.475V12.936c0-0.262,0.213-0.475,0.475-0.475H29.064 M29.064,10H18.936
		C17.315,10,16,11.315,16,12.936v22.128C16,36.685,17.315,38,18.936,38h10.128C30.685,38,32,36.685,32,35.064V12.936
		C32,11.315,30.685,10,29.064,10L29.064,10z M24,34.078c0.68,0,1.23-0.551,1.23-1.23c0-0.68-0.551-1.23-1.23-1.23
		s-1.23,0.551-1.23,1.23C22.77,33.527,23.32,34.078,24,34.078z"/>
</g>
<g id="guide">
</g>
</svg>
