<?xml version="1.0" encoding="utf-8"?>
<!-- Generator: Adobe Illustrator 23.0.1, SVG Export Plug-In . SVG Version: 6.00 Build 0)  -->
<svg version="1.1" xmlns="http://www.w3.org/2000/svg" xmlns:xlink="http://www.w3.org/1999/xlink" x="0px" y="0px"
	 viewBox="0 0 48 48" style="enable-background:new 0 0 48 48;" xml:space="preserve">
<g id="icon" xmlns:cc="http://creativecommons.org/ns#" xmlns:dc="http://purl.org/dc/elements/1.1/" xmlns:inkscape="http://www.inkscape.org/namespaces/inkscape" xmlns:rdf="http://www.w3.org/1999/02/22-rdf-syntax-ns#" xmlns:sodipodi="http://sodipodi.sourceforge.net/DTD/sodipodi-0.dtd" xmlns:svg="http://www.w3.org/2000/svg">
	<path d="M38.492,38H26.872v-1.401c0.316-0.026,0.774-0.066,1.373-0.118c0.599-0.053,1.006-0.132,1.23-0.237
		c0.395-0.158,0.684-0.398,0.868-0.72c0.184-0.322,0.276-0.74,0.276-1.253v-9.09H17.46v8.873c0,0.46,0.076,0.848,0.227,1.164
		c0.151,0.316,0.451,0.592,0.898,0.829c0.224,0.118,0.622,0.237,1.194,0.355c0.572,0.118,1.023,0.184,1.352,0.197V38H9.508v-1.401
		c0.316-0.026,0.773-0.066,1.371-0.118s1.01-0.132,1.233-0.237c0.395-0.158,0.684-0.398,0.868-0.72
		c0.184-0.322,0.276-0.74,0.276-1.253V14.065c0-0.421-0.086-0.806-0.257-1.154c-0.171-0.349-0.467-0.622-0.888-0.819
		c-0.355-0.171-0.786-0.322-1.292-0.454c-0.506-0.132-0.944-0.21-1.312-0.237V10H21.13v1.401c-0.368,0.013-0.819,0.072-1.352,0.178
		c-0.533,0.105-0.931,0.204-1.194,0.296c-0.447,0.158-0.747,0.421-0.898,0.789c-0.151,0.368-0.227,0.77-0.227,1.204v7.807h13.16
		v-7.61c0-0.421-0.086-0.806-0.257-1.154s-0.467-0.622-0.888-0.819c-0.355-0.171-0.783-0.322-1.289-0.454
		c-0.506-0.132-0.946-0.21-1.314-0.237V10h11.621v1.401c-0.368,0.013-0.816,0.072-1.348,0.178c-0.533,0.105-0.934,0.204-1.197,0.296
		c-0.447,0.158-0.743,0.421-0.895,0.789s-0.23,0.77-0.23,1.204v20.186c0,0.46,0.079,0.848,0.23,1.164s0.447,0.592,0.895,0.829
		c0.224,0.118,0.625,0.237,1.197,0.355s1.019,0.184,1.348,0.197V38z"/>
</g>
<g id="guide">
</g>
</svg>
