<?xml version="1.0" encoding="utf-8"?>
<!-- Generator: Adobe Illustrator 23.0.1, SVG Export Plug-In . SVG Version: 6.00 Build 0)  -->
<svg version="1.1" xmlns="http://www.w3.org/2000/svg" xmlns:xlink="http://www.w3.org/1999/xlink" x="0px" y="0px"
	 viewBox="0 0 48 48" style="enable-background:new 0 0 48 48;" xml:space="preserve">
<g id="icon" xmlns:cc="http://creativecommons.org/ns#" xmlns:dc="http://purl.org/dc/elements/1.1/" xmlns:inkscape="http://www.inkscape.org/namespaces/inkscape" xmlns:rdf="http://www.w3.org/1999/02/22-rdf-syntax-ns#" xmlns:sodipodi="http://sodipodi.sourceforge.net/DTD/sodipodi-0.dtd" xmlns:svg="http://www.w3.org/2000/svg">
	<path d="M34.302,38h-8.773v-1.194c0.277-0.024,0.585-0.048,0.922-0.072c0.338-0.024,0.615-0.072,0.832-0.145
		c0.338-0.109,0.585-0.298,0.748-0.57c0.163-0.271,0.247-0.624,0.247-1.058v-8.671c0-1.266-0.301-2.243-0.898-2.93
		c-0.597-0.687-1.326-1.031-2.186-1.031c-0.629,0-1.212,0.099-1.75,0.298c-0.537,0.199-1.017,0.443-1.441,0.733
		c-0.41,0.301-0.725,0.603-0.942,0.904c-0.219,0.301-0.387,0.555-0.508,0.76v9.756c0,0.41,0.081,0.748,0.244,1.013
		c0.163,0.265,0.413,0.47,0.751,0.615c0.265,0.121,0.54,0.211,0.823,0.271c0.283,0.06,0.594,0.102,0.932,0.127V38h-8.736v-1.194
		c0.276-0.024,0.562-0.051,0.862-0.081c0.3-0.03,0.552-0.075,0.755-0.136c0.335-0.109,0.586-0.298,0.754-0.57
		c0.167-0.271,0.252-0.626,0.252-1.06V14.18c0-0.41-0.093-0.82-0.28-1.23c-0.187-0.411-0.431-0.719-0.733-0.924
		c-0.217-0.157-0.6-0.268-1.149-0.335s-0.992-0.112-1.329-0.136v-1.158L20.3,10l0.253,0.271v12.444h0.072
		c0.398-0.398,0.761-0.751,1.087-1.058c0.327-0.307,0.755-0.63,1.287-0.968c0.458-0.289,0.999-0.531,1.62-0.724
		c0.623-0.193,1.319-0.289,2.091-0.289c1.598,0,2.822,0.503,3.678,1.51c0.862,1.007,1.29,2.457,1.29,4.35v9.279
		c0,0.422,0.072,0.763,0.223,1.022c0.157,0.259,0.404,0.461,0.76,0.606c0.277,0.109,0.531,0.19,0.754,0.244s0.519,0.093,0.886,0.118
		V38z"/>
</g>
<g id="guide">
</g>
</svg>
