<?xml version="1.0" encoding="utf-8"?>
<!-- Generator: Adobe Illustrator 23.0.1, SVG Export Plug-In . SVG Version: 6.00 Build 0)  -->
<svg version="1.1" xmlns="http://www.w3.org/2000/svg" xmlns:xlink="http://www.w3.org/1999/xlink" x="0px" y="0px"
	 viewBox="0 0 48 48" style="enable-background:new 0 0 48 48;" xml:space="preserve">
<g id="icon" xmlns:cc="http://creativecommons.org/ns#" xmlns:dc="http://purl.org/dc/elements/1.1/" xmlns:inkscape="http://www.inkscape.org/namespaces/inkscape" xmlns:rdf="http://www.w3.org/1999/02/22-rdf-syntax-ns#" xmlns:sodipodi="http://sodipodi.sourceforge.net/DTD/sodipodi-0.dtd" xmlns:svg="http://www.w3.org/2000/svg">
	<path d="M10.719,26.213c0-4.528,2.9-9.007,7.582-12.212l3.358,3.103c-2.695,1.831-4.63,4.021-5.8,6.513
		c0.611-0.305,1.324-0.458,2.138-0.458c2.799,0,4.986,2.188,4.986,5.191c0,1.576-0.611,2.95-1.782,4.019
		c-1.17,1.069-2.544,1.628-4.222,1.628c-3.716,0-6.26-2.952-6.26-7.379V26.213z M25.017,26.213c0-4.528,2.952-9.007,7.582-12.212
		l3.358,3.103c-2.695,1.831-4.63,4.021-5.8,6.513c0.663-0.305,1.425-0.458,2.188-0.458c2.697,0,4.937,2.188,4.937,5.191
		c0,1.576-0.611,2.95-1.782,4.019c-1.17,1.069-2.544,1.628-4.222,1.628c-3.714,0-6.26-2.952-6.26-7.379V26.213z"/>
</g>
<g id="guide">
</g>
</svg>
