<?xml version="1.0" encoding="utf-8"?>
<!-- Generator: Adobe Illustrator 23.0.1, SVG Export Plug-In . SVG Version: 6.00 Build 0)  -->
<svg version="1.1" xmlns="http://www.w3.org/2000/svg" xmlns:xlink="http://www.w3.org/1999/xlink" x="0px" y="0px"
	 viewBox="0 0 48 48" style="enable-background:new 0 0 48 48;" xml:space="preserve">
<g id="icon" xmlns:cc="http://creativecommons.org/ns#" xmlns:dc="http://purl.org/dc/elements/1.1/" xmlns:inkscape="http://www.inkscape.org/namespaces/inkscape" xmlns:rdf="http://www.w3.org/1999/02/22-rdf-syntax-ns#" xmlns:sodipodi="http://sodipodi.sourceforge.net/DTD/sodipodi-0.dtd" xmlns:svg="http://www.w3.org/2000/svg">
	<path d="M38.359,17.336c0-0.644-0.586-1.23-1.231-1.23l-26.385,0c-0.601,0.063-1.106,0.627-1.103,1.23v21.327
		c0,0.644,0.586,1.23,1.231,1.23h26.256c0.644,0,1.231-0.586,1.231-1.23V17.336z M12.103,37.433v-3.345l5.872-2.935l5.705,6.28
		H12.103z M35.897,37.433h-8.885l-3.167-3.486l6.423-3.204l5.628,6.331V37.433z M35.897,33.37l-4.41-4.96
		c-0.245-0.275-0.619-0.43-0.987-0.41c-0.169,0.009-0.336,0.053-0.487,0.128l-7.885,3.935l-2.961-3.255
		c-0.248-0.271-0.621-0.421-0.987-0.397c-0.165,0.01-0.327,0.054-0.474,0.128l-5.603,2.794V18.567h23.795V33.37z M24,27.691
		c2.025,0,3.692-1.667,3.692-3.691c0-2.024-1.668-3.691-3.692-3.691c-2.025,0-3.692,1.667-3.692,3.691
		C20.308,26.024,21.975,27.691,24,27.691z M24,22.77c0.694,0,1.231,0.536,1.231,1.23S24.694,25.23,24,25.23
		c-0.694,0-1.231-0.536-1.231-1.23S23.306,22.77,24,22.77z M33.437,13.645L33.437,13.645c0,0.68-0.551,1.23-1.23,1.23H15.794
		c-0.68,0-1.23-0.551-1.23-1.23v0c0-0.68,0.551-1.23,1.23-1.23h16.412C32.886,12.415,33.437,12.965,33.437,13.645z M28.515,9.953
		L28.515,9.953c0,0.68-0.551,1.23-1.23,1.23h-6.568c-0.68,0-1.23-0.551-1.23-1.23v0c0-0.68,0.551-1.23,1.23-1.23h6.568
		C27.964,8.723,28.515,9.274,28.515,9.953z"/>
</g>
<g id="guide">
</g>
</svg>
