<?xml version="1.0" encoding="utf-8"?>
<!-- Generator: Adobe Illustrator 23.0.1, SVG Export Plug-In . SVG Version: 6.00 Build 0)  -->
<svg version="1.1" xmlns="http://www.w3.org/2000/svg" xmlns:xlink="http://www.w3.org/1999/xlink" x="0px" y="0px"
	 viewBox="0 0 48 48" style="enable-background:new 0 0 48 48;" xml:space="preserve">
<g id="icon" xmlns:cc="http://creativecommons.org/ns#" xmlns:dc="http://purl.org/dc/elements/1.1/" xmlns:inkscape="http://www.inkscape.org/namespaces/inkscape" xmlns:rdf="http://www.w3.org/1999/02/22-rdf-syntax-ns#" xmlns:sodipodi="http://sodipodi.sourceforge.net/DTD/sodipodi-0.dtd" xmlns:svg="http://www.w3.org/2000/svg">
	<path d="M32.498,10.461c0.298,0,0.541,0.243,0.541,0.541v25.996c0,0.298-0.243,0.541-0.541,0.541H15.502
		c-0.298,0-0.541-0.243-0.541-0.541V11.002c0-0.298,0.243-0.541,0.541-0.541H32.498 M32.498,8H15.502
		C13.844,8,12.5,9.344,12.5,11.002v25.996c0,1.658,1.344,3.002,3.002,3.002h16.996c1.658,0,3.002-1.344,3.002-3.002V11.002
		C35.5,9.344,34.156,8,32.498,8L32.498,8z M24,33.77c-0.68,0-1.23,0.551-1.23,1.23s0.551,1.23,1.23,1.23s1.23-0.551,1.23-1.23
		S24.68,33.77,24,33.77L24,33.77z"/>
</g>
<g id="guide">
</g>
</svg>
