<?xml version="1.0" encoding="utf-8"?>
<!-- Generator: Adobe Illustrator 23.0.1, SVG Export Plug-In . SVG Version: 6.00 Build 0)  -->
<svg version="1.1" xmlns="http://www.w3.org/2000/svg" xmlns:xlink="http://www.w3.org/1999/xlink" x="0px" y="0px"
	 viewBox="0 0 48 48" style="enable-background:new 0 0 48 48;" xml:space="preserve">
<g id="icon" xmlns:cc="http://creativecommons.org/ns#" xmlns:dc="http://purl.org/dc/elements/1.1/" xmlns:inkscape="http://www.inkscape.org/namespaces/inkscape" xmlns:rdf="http://www.w3.org/1999/02/22-rdf-syntax-ns#" xmlns:sodipodi="http://sodipodi.sourceforge.net/DTD/sodipodi-0.dtd" xmlns:svg="http://www.w3.org/2000/svg">
	<g id="guide_1_">
	</g>
	<g id="guide_2_">
	</g>
	<path d="M35.885,8H18.889c-1.658,0-3.002,1.344-3.002,3.002V12h-3.839c-1.621,0-2.936,1.315-2.936,2.936v22.128
		c0,1.621,1.315,2.936,2.936,2.936h8.84h1.288h13.709c1.658,0,3.002-1.344,3.002-3.002V11.002C38.888,9.344,37.543,8,35.885,8z
		 M20.888,37.539h-8.84c-0.262,0-0.475-0.213-0.475-0.475V14.936c0-0.262,0.213-0.475,0.475-0.475h10.128
		c0.262,0,0.475,0.213,0.475,0.475v22.128c0,0.262-0.213,0.475-0.475,0.475H20.888z M36.427,36.998c0,0.298-0.243,0.541-0.541,0.541
		H25.065c0.025-0.156,0.048-0.312,0.048-0.475V14.936c0-1.621-1.315-2.936-2.936-2.936h-3.828v-0.998
		c0-0.298,0.243-0.541,0.541-0.541h16.996c0.298,0,0.541,0.243,0.541,0.541V36.998z M28.617,35c0,0.679-0.551,1.23-1.23,1.23
		c-0.679,0-1.23-0.551-1.23-1.23s0.55-1.23,1.23-1.23C28.068,33.77,28.617,34.321,28.617,35z M18.342,34.848
		c0,0.679-0.55,1.23-1.23,1.23s-1.23-0.551-1.23-1.23c0-0.679,0.551-1.23,1.23-1.23S18.342,34.168,18.342,34.848z"/>
</g>
<g id="guide">
</g>
</svg>
