<?xml version="1.0" encoding="utf-8"?>
<!-- Generator: Adobe Illustrator 23.0.1, SVG Export Plug-In . SVG Version: 6.00 Build 0)  -->
<svg version="1.1" xmlns="http://www.w3.org/2000/svg" xmlns:xlink="http://www.w3.org/1999/xlink" x="0px" y="0px"
	 viewBox="0 0 48 48" style="enable-background:new 0 0 48 48;" xml:space="preserve">
<g id="icon" xmlns:cc="http://creativecommons.org/ns#" xmlns:dc="http://purl.org/dc/elements/1.1/" xmlns:inkscape="http://www.inkscape.org/namespaces/inkscape" xmlns:rdf="http://www.w3.org/1999/02/22-rdf-syntax-ns#" xmlns:sodipodi="http://sodipodi.sourceforge.net/DTD/sodipodi-0.dtd" xmlns:svg="http://www.w3.org/2000/svg">
	<path transform="translate(0,-952.36218)" d="M15.629,960.373c-0.47,0.066-0.884,0.428-1.013,0.884l-2.102,7.318
		c-1.952,0-3.93,0-5.871,0c-0.6,0.063-1.106,0.627-1.102,1.23v21.325c0,0.644,0.586,1.23,1.231,1.23h26.254
		c0.644,0,1.231-0.586,1.231-1.23v-0.718l0.897,0.256c0.624,0.178,1.354-0.233,1.525-0.859l5.743-20.915
		c0.17-0.624-0.246-1.346-0.872-1.512l-25.433-6.972C15.959,960.366,15.792,960.353,15.629,960.373L15.629,960.373z M16.642,963.103
		l23.074,6.318l-5.089,18.531l-0.372-0.103v-18.044c0-0.644-0.586-1.23-1.231-1.23H15.078L16.642,963.103z M8.002,971.035h23.792
		v14.802l-4.41-4.96c-0.245-0.275-0.619-0.43-0.987-0.41c-0.169,0.009-0.336,0.053-0.487,0.128l-7.884,3.934l-2.961-3.255
		c-0.248-0.271-0.621-0.421-0.987-0.397c-0.165,0.01-0.327,0.054-0.474,0.128L8.002,983.8L8.002,971.035z M26.167,983.21
		l5.628,6.331v0.359h-8.884l-3.166-3.486L26.167,983.21z M13.873,983.62l5.705,6.28H8.002v-3.345L13.873,983.62z M19.899,980.158
		c2.025,0,3.692-1.667,3.692-3.691c0-2.024-1.668-3.691-3.692-3.691c-2.025,0-3.692,1.667-3.692,3.691
		C16.207,978.49,17.875,980.158,19.899,980.158z M19.899,975.236c0.694,0,1.231,0.536,1.231,1.23s-0.536,1.23-1.231,1.23
		c-0.694,0-1.231-0.536-1.231-1.23S19.205,975.236,19.899,975.236z"/>
</g>
<g id="guide">
</g>
</svg>
