<?xml version="1.0" encoding="utf-8"?>
<!-- Generator: Adobe Illustrator 23.0.1, SVG Export Plug-In . SVG Version: 6.00 Build 0)  -->
<svg version="1.1" xmlns="http://www.w3.org/2000/svg" xmlns:xlink="http://www.w3.org/1999/xlink" x="0px" y="0px"
	 viewBox="0 0 48 48" style="enable-background:new 0 0 48 48;" xml:space="preserve">
<g id="icon" xmlns:cc="http://creativecommons.org/ns#" xmlns:dc="http://purl.org/dc/elements/1.1/" xmlns:inkscape="http://www.inkscape.org/namespaces/inkscape" xmlns:rdf="http://www.w3.org/1999/02/22-rdf-syntax-ns#" xmlns:sodipodi="http://sodipodi.sourceforge.net/DTD/sodipodi-0.dtd" xmlns:svg="http://www.w3.org/2000/svg">
	<path d="M34.996,12.461c3.056,0,5.543,2.487,5.543,5.543v11.992c0,3.056-2.487,5.543-5.543,5.543H13.004
		c-3.056,0-5.543-2.487-5.543-5.543V18.004c0-3.056,2.487-5.543,5.543-5.543H34.996 M34.996,10H13.004
		c-4.421,0-8.004,3.584-8.004,8.004v11.992c0,4.421,3.584,8.004,8.004,8.004h21.992C39.416,38,43,34.416,43,29.996V18.004
		C43,13.584,39.416,10,34.996,10L34.996,10z M28.701,23.138l-7.407-4.277c-0.663-0.383-1.493,0.096-1.493,0.862v8.553
		c0,0.766,0.829,1.245,1.493,0.862l7.407-4.277C29.364,24.479,29.364,23.521,28.701,23.138z"/>
</g>
<g id="guide">
</g>
</svg>
