<?xml version="1.0" encoding="utf-8"?>
<!-- Generator: Adobe Illustrator 23.0.1, SVG Export Plug-In . SVG Version: 6.00 Build 0)  -->
<svg version="1.1" xmlns="http://www.w3.org/2000/svg" xmlns:xlink="http://www.w3.org/1999/xlink" x="0px" y="0px"
	 viewBox="0 0 48 48" style="enable-background:new 0 0 48 48;" xml:space="preserve">
<g id="icon" xmlns:cc="http://creativecommons.org/ns#" xmlns:dc="http://purl.org/dc/elements/1.1/" xmlns:inkscape="http://www.inkscape.org/namespaces/inkscape" xmlns:rdf="http://www.w3.org/1999/02/22-rdf-syntax-ns#" xmlns:sodipodi="http://sodipodi.sourceforge.net/DTD/sodipodi-0.dtd" xmlns:svg="http://www.w3.org/2000/svg">
	<g id="guide_1_">
	</g>
	<g id="guide_2_">
	</g>
	<path d="M39.203,10.919c2.534,2.534,2.534,6.658,0,9.192l-8.485,8.485c-2.534,2.534-6.658,2.534-9.192,0
		c-1.267-1.267-1.901-2.932-1.901-4.596h2.999c0,0.896,0.341,1.793,1.023,2.475c1.364,1.364,3.585,1.364,4.95,0l8.485-8.485
		c1.364-1.364,1.364-3.585,0-4.95c-1.364-1.364-3.585-1.364-4.95,0l-4.613,4.613c-0.109-0.125-0.217-0.251-0.336-0.371
		c-0.617-0.617-1.312-1.103-2.047-1.489l4.875-4.875C32.545,8.384,36.669,8.384,39.203,10.919z M17.99,37.081l4.875-4.875
		c-0.735-0.386-1.43-0.872-2.047-1.489c-0.119-0.119-0.227-0.245-0.336-0.371l-4.613,4.613c-1.364,1.364-3.585,1.364-4.95,0
		s-1.364-3.585,0-4.95l8.485-8.485c1.364-1.364,3.585-1.364,4.95,0c0.682,0.682,1.023,1.579,1.023,2.475h2.999
		c0-1.665-0.634-3.329-1.901-4.596c-2.534-2.534-6.658-2.534-9.192,0l-8.485,8.485c-2.534,2.534-2.534,6.658,0,9.192
		S15.455,39.616,17.99,37.081z"/>
</g>
<g id="guide">
</g>
</svg>
