<?xml version="1.0" encoding="utf-8"?>
<!-- Generator: Adobe Illustrator 23.0.1, SVG Export Plug-In . SVG Version: 6.00 Build 0)  -->
<svg version="1.1" id="Layer_1" xmlns="http://www.w3.org/2000/svg" xmlns:xlink="http://www.w3.org/1999/xlink" x="0px" y="0px"
	 viewBox="0 0 48 48" style="enable-background:new 0 0 48 48;" xml:space="preserve">
<path id="icon" xmlns:cc="http://creativecommons.org/ns#" xmlns:dc="http://purl.org/dc/elements/1.1/" xmlns:inkscape="http://www.inkscape.org/namespaces/inkscape" xmlns:rdf="http://www.w3.org/1999/02/22-rdf-syntax-ns#" xmlns:sodipodi="http://sodipodi.sourceforge.net/DTD/sodipodi-0.dtd" xmlns:svg="http://www.w3.org/2000/svg" d="
	M38.359,13.336c0-0.644-0.586-1.23-1.231-1.23H10.743c-0.601,0.063-1.106,0.627-1.103,1.23v21.327c0,0.644,0.586,1.23,1.231,1.23
	h26.256c0.644,0,1.231-0.586,1.231-1.23L38.359,13.336L38.359,13.336z M12.103,33.433v-3.345l5.872-2.935l5.705,6.28H12.103z
	 M35.897,33.433h-8.885l-3.167-3.486l6.423-3.204l5.628,6.331L35.897,33.433L35.897,33.433z M35.897,29.37l-4.41-4.96
	c-0.245-0.275-0.619-0.43-0.987-0.41c-0.169,0.009-0.336,0.053-0.487,0.128l-7.885,3.935l-2.961-3.255
	c-0.248-0.271-0.621-0.421-0.987-0.397c-0.165,0.01-0.327,0.054-0.474,0.128l-5.603,2.794V14.567h23.795L35.897,29.37L35.897,29.37z
	 M24,23.692c2.025,0,3.692-1.667,3.692-3.691c0-2.024-1.668-3.691-3.692-3.691c-2.025,0-3.692,1.667-3.692,3.691
	C20.308,22.024,21.975,23.692,24,23.692z M24,18.77c0.694,0,1.231,0.536,1.231,1.23s-0.536,1.23-1.231,1.23
	c-0.694,0-1.231-0.536-1.231-1.23S23.306,18.77,24,18.77z"/>
</svg>
