<?xml version="1.0" encoding="utf-8"?>
<!-- Generator: Adobe Illustrator 23.0.1, SVG Export Plug-In . SVG Version: 6.00 Build 0)  -->
<svg version="1.1" xmlns="http://www.w3.org/2000/svg" xmlns:xlink="http://www.w3.org/1999/xlink" x="0px" y="0px"
	 viewBox="0 0 48 48" style="enable-background:new 0 0 48 48;" xml:space="preserve">
<g id="icon" xmlns:cc="http://creativecommons.org/ns#" xmlns:dc="http://purl.org/dc/elements/1.1/" xmlns:inkscape="http://www.inkscape.org/namespaces/inkscape" xmlns:rdf="http://www.w3.org/1999/02/22-rdf-syntax-ns#" xmlns:sodipodi="http://sodipodi.sourceforge.net/DTD/sodipodi-0.dtd" xmlns:svg="http://www.w3.org/2000/svg">
	<path d="M30.721,18.372c0.648,0.769,1.15,1.661,1.507,2.677c0.357,1.016,0.535,2.177,0.535,3.484c0,1.285-0.214,2.457-0.642,3.517
		c-0.428,1.06-0.994,1.963-1.697,2.71c-0.736,0.758-1.554,1.34-2.454,1.746c-0.9,0.406-1.856,0.609-2.866,0.609
		c-0.977,0-1.779-0.11-2.405-0.329c-0.626-0.22-1.137-0.478-1.532-0.774h-0.132v4.887c0,0.397,0.077,0.728,0.231,0.991
		c0.154,0.264,0.39,0.457,0.708,0.578c0.264,0.099,0.64,0.195,1.128,0.29c0.489,0.093,0.892,0.146,1.211,0.156V40h-9.076v-1.087
		c0.34-0.022,0.67-0.049,0.988-0.082c0.318-0.033,0.604-0.088,0.857-0.165c0.329-0.11,0.56-0.302,0.692-0.577
		c0.132-0.275,0.198-0.598,0.198-0.972V19.838c0-0.329-0.082-0.648-0.247-0.955c-0.165-0.307-0.379-0.555-0.642-0.741
		c-0.198-0.132-0.472-0.233-0.824-0.305c-0.351-0.071-0.692-0.118-1.021-0.14v-1.087l5.535-0.362l0.231,0.198v1.828l0.132,0.033
		c0.571-0.659,1.279-1.208,2.125-1.647S24.944,16,25.779,16c1.01,0,1.935,0.214,2.776,0.642S30.117,17.647,30.721,18.372z
		 M28.036,30.051c0.439-0.681,0.763-1.472,0.972-2.372c0.209-0.9,0.313-1.905,0.313-3.014c0-0.813-0.088-1.642-0.264-2.487
		s-0.45-1.581-0.824-2.207c-0.373-0.637-0.862-1.153-1.466-1.548c-0.604-0.395-1.329-0.593-2.174-0.593
		c-0.813,0-1.504,0.178-2.075,0.535c-0.571,0.357-1.065,0.782-1.482,1.277v9.603c0.099,0.297,0.261,0.604,0.486,0.922
		c0.225,0.318,0.475,0.593,0.749,0.824c0.34,0.275,0.708,0.497,1.104,0.667c0.395,0.17,0.879,0.255,1.45,0.255
		c0.615,0,1.208-0.162,1.779-0.486C27.174,31.102,27.651,30.644,28.036,30.051z"/>
</g>
<g id="guide">
</g>
</svg>
