<?xml version="1.0" encoding="utf-8"?>
<!-- Generator: Adobe Illustrator 23.0.1, SVG Export Plug-In . SVG Version: 6.00 Build 0)  -->
<svg version="1.1" xmlns="http://www.w3.org/2000/svg" xmlns:xlink="http://www.w3.org/1999/xlink" x="0px" y="0px"
	 viewBox="0 0 48 48" style="enable-background:new 0 0 48 48;" xml:space="preserve">
<g id="icon" xmlns:cc="http://creativecommons.org/ns#" xmlns:dc="http://purl.org/dc/elements/1.1/" xmlns:inkscape="http://www.inkscape.org/namespaces/inkscape" xmlns:rdf="http://www.w3.org/1999/02/22-rdf-syntax-ns#" xmlns:sodipodi="http://sodipodi.sourceforge.net/DTD/sodipodi-0.dtd" xmlns:svg="http://www.w3.org/2000/svg">
	<path d="M40.064,13.461c0.262,0,0.475,0.213,0.475,0.475v20.128c0,0.262-0.213,0.475-0.475,0.475H7.936
		c-0.262,0-0.475-0.213-0.475-0.475V13.936c0-0.262,0.213-0.475,0.475-0.475H40.064 M40.064,11H7.936C6.315,11,5,12.315,5,13.936
		v20.128C5,35.685,6.315,37,7.936,37h32.128C41.685,37,43,35.685,43,34.064V13.936C43,12.315,41.685,11,40.064,11L40.064,11z"/>
</g>
<g id="guide">
</g>
</svg>
